<?xml version="1.0" standalone="no"?>
<!DOCTYPE svg PUBLIC "-//W3C//DTD SVG 20010904//EN"
 "http://www.w3.org/TR/2001/REC-SVG-20010904/DTD/svg10.dtd">
<svg version="1.0" xmlns="http://www.w3.org/2000/svg"
 width="260.000000pt" height="260.000000pt" viewBox="0 0 260.000000 260.000000"
 preserveAspectRatio="xMidYMid meet">
<metadata>
Created by potrace 1.14, written by Peter Selinger 2001-2017
</metadata>
<g transform="translate(0.000000,260.000000) scale(0.100000,-0.100000)"
fill="#000000" stroke="none">
<path d="M0 2050 l0 -550 48 -12 c26 -7 62 -13 80 -12 37 0 37 0 17 -57 -9
-24 -34 -118 -56 -209 -33 -131 -42 -185 -43 -262 -1 -88 -3 -98 -20 -100 -11
-2 -21 -9 -24 -17 -3 -10 2 -13 22 -9 14 3 27 1 27 -3 2 -16 27 -103 35 -124
4 -9 -7 -16 -37 -22 -23 -5 -44 -14 -47 -22 -3 -9 2 -11 14 -8 11 3 35 9 54
12 31 5 37 3 52 -24 19 -35 20 -33 -71 -131 l-51 -55 0 -222 0 -223 1300 0
1301 0 -3 217 c-2 164 -6 217 -15 216 -7 -2 -10 3 -8 10 7 17 -58 113 -74 109
-7 -1 -10 1 -7 6 3 5 -9 23 -26 41 -26 26 -33 29 -47 19 -14 -11 -14 -11 -3 4
11 14 9 19 -16 37 -16 11 -33 17 -37 13 -4 -4 -2 4 5 17 6 12 10 32 7 42 -3
13 -1 17 6 12 7 -4 17 -8 22 -9 52 -10 75 -15 102 -23 17 -5 34 -7 37 -3 3 3
6 1 6 -5 0 -6 11 -13 25 -15 45 -9 27 17 -22 32 -27 8 -50 15 -53 15 -14 3
-77 17 -92 21 -15 5 -15 8 2 47 10 22 16 45 13 50 -3 5 3 5 13 0 11 -5 26 -9
34 -8 8 1 21 -3 28 -8 6 -5 12 -7 12 -4 0 3 20 0 45 -7 38 -12 45 -12 45 0 0
8 -3 13 -7 12 -5 0 -15 1 -23 5 -22 8 -72 18 -132 26 -9 1 -4 79 6 88 3 3 0
13 -7 21 -9 13 -9 14 1 8 15 -9 15 -7 17 152 1 67 -2 141 -6 165 -5 23 -11 54
-13 68 -4 22 -29 84 -43 109 -2 3 16 7 39 7 24 1 44 7 46 12 2 5 9 8 16 5 8
-3 21 2 30 11 9 9 16 11 16 5 0 -7 11 -5 30 5 l29 15 1 454 0 454 -77 -4 c-85
-4 -132 -9 -178 -19 -16 -4 -36 -8 -43 -9 -8 -1 -18 -9 -23 -17 -5 -9 -9 -10
-9 -2 0 8 -19 3 -55 -13 -31 -13 -62 -24 -70 -24 -8 0 -15 -4 -15 -8 0 -5 -6
-9 -13 -9 -25 0 -127 -64 -121 -75 4 -6 2 -8 -4 -4 -15 9 -90 -66 -98 -98 -4
-16 -1 -33 7 -43 10 -12 10 -15 2 -9 -9 5 -13 0 -13 -18 l0 -24 -57 28 c-32
16 -71 30 -88 32 -16 2 -32 6 -35 9 -3 4 -22 10 -44 13 -21 4 -42 8 -46 11
-14 8 -206 9 -350 1 -165 -9 -228 -16 -300 -32 -14 -3 -36 -8 -50 -10 -49 -9
-159 -44 -165 -54 -18 -29 -25 -4 -19 68 11 127 -22 194 -126 257 -64 39 -198
93 -337 135 -50 16 -109 38 -132 49 -25 13 -59 21 -91 21 l-50 0 0 -550z
m2410 -1204 c0 -3 -4 -8 -10 -11 -5 -3 -10 -1 -10 4 0 6 5 11 10 11 6 0 10 -2
10 -4z"/>
</g>
</svg>
